<?xml version="1.0" encoding="utf-8"?>
<!-- Generator: Adobe Illustrator 22.0.1, SVG Export Plug-In . SVG Version: 6.00 Build 0)  -->
<svg version="1.1" id="Logo_zwart_kleding" xmlns="http://www.w3.org/2000/svg" xmlns:xlink="http://www.w3.org/1999/xlink" x="0px"
	 y="0px" viewBox="0 0 578.8 553.9" style="enable-background:new 0 0 578.8 553.9;" xml:space="preserve">
<style type="text/css">
	.st0{fill:#FFFFFF;}
	.st1{fill:none;stroke:#FFFFFF;stroke-width:5;stroke-miterlimit:10;}
</style>
<g>
	<path class="st0" d="M18,236.6l-9.9-40.4h7.9l3.8,18.4c1,4.9,2,10.1,2.6,14.1h0.1c0.7-4.3,1.8-9.1,2.9-14.2l4.4-18.3h7.7l4,18.6
		c1,4.8,1.9,9.3,2.5,13.7h0.1c0.7-4.4,1.7-9.1,2.8-14l4.2-18.2h7.5l-10.9,40.4h-7.9l-4.2-19c-1-4.6-1.7-8.5-2.3-12.8h-0.1
		c-0.7,4.3-1.4,8.2-2.6,12.8l-4.7,19H18z"/>
	<path class="st0" d="M68.4,225.1l-3.5,11.5h-7.6l13-40.4h9.4l13.1,40.4h-8l-3.7-11.5H68.4z M80,219.5l-3.2-10
		c-0.8-2.5-1.4-5.2-2-7.6h-0.1c-0.6,2.3-1.3,5.2-1.9,7.6l-3.1,10H80z"/>
	<path class="st0" d="M101.3,202.3H89.8v-6.2h30.5v6.2h-11.6v34.3h-7.4V202.3z"/>
	<path class="st0" d="M144.9,196.1v40.4h-7.4v-40.4H144.9z"/>
	<path class="st0" d="M153.2,228.5c2.3,1.4,6,2.6,9.8,2.6c4.7,0,7.3-2.2,7.3-5.5c0-3.1-2-4.9-7.1-6.7c-6.7-2.4-11-5.9-11-11.8
		c0-6.7,5.5-11.6,14.3-11.6c4.4,0,7.6,1,9.7,2l-1.7,5.9c-1.5-0.8-4.3-1.9-8.1-1.9c-4.7,0-6.7,2.5-6.7,4.9c0,3.1,2.3,4.6,7.7,6.7
		c7,2.6,10.4,6.2,10.4,12c0,6.5-4.9,12.2-15.3,12.2c-4.3,0-8.8-1.2-11-2.6L153.2,228.5z"/>
	<path class="st0" d="M18.8,269.1v16.2h17.1v-16.2h7.4v40.4h-7.4v-17.8H18.8v17.8h-7.4v-40.4H18.8z"/>
	<path class="st0" d="M74.4,291.6H59.1v11.9h17v6.1H51.8v-40.4h23.5v6.1H59.1v10.4h15.2V291.6z"/>
	<path class="st0" d="M91,275.3H79.5v-6.2H110v6.2H98.4v34.3H91V275.3z"/>
	<path class="st0" d="M127.2,269.7c2.7-0.5,6.4-0.8,11.3-0.8c5.4,0,9.3,1.1,11.9,3.3c2.4,2,4,5.2,4,8.9c0,3.8-1.2,7-3.4,9.1
		c-3,2.9-7.6,4.4-12.8,4.4c-1.4,0-2.6-0.1-3.6-0.3v15.3h-7.3V269.7z M134.5,288.4c1,0.3,2.1,0.4,3.6,0.4c5.5,0,8.9-2.8,8.9-7.4
		c0-4.5-3.1-6.8-8.2-6.8c-2,0-3.5,0.2-4.3,0.4V288.4z"/>
	<path class="st0" d="M168,269.1v23.6c0,7.9,3.3,11.6,8.3,11.6c5.3,0,8.5-3.7,8.5-11.6v-23.6h7.4v23.1c0,12.5-6.4,18-16.1,18
		c-9.4,0-15.4-5.2-15.4-17.9v-23.2H168z"/>
	<path class="st0" d="M200.6,309.6v-40.4h8.5l10.4,17.3c2.6,4.5,5,9.2,6.9,13.6h0.1c-0.5-5.4-0.7-10.6-0.7-16.8v-14.1h6.8v40.4H225
		l-10.6-17.8c-2.6-4.4-5.2-9.4-7.2-13.9l-0.2,0.1c0.3,5.2,0.4,10.6,0.4,17.2v14.5H200.6z"/>
	<path class="st0" d="M249,275.3h-11.5v-6.2H268v6.2h-11.6v34.3H249V275.3z"/>
	<path class="st0" d="M291.7,278.1l-0.3-4.3c-1-8.9,2-18.6,10.2-28.5c7.4-8.7,11.5-15.1,11.5-22.6c0-8.4-5.3-14-15.6-14.2
		c-5.9,0-12.5,2-16.6,5.1l-4-10.4c5.4-4,14.8-6.6,23.5-6.6c18.9,0,27.5,11.7,27.5,24.2c0,11.2-6.3,19.3-14.2,28.6
		c-7.2,8.6-9.9,15.8-9.4,24.2l0.2,4.3H291.7z M288.1,301.2c0-6.1,4.1-10.4,9.9-10.4c5.8,0,9.7,4.3,9.7,10.4c0,5.8-3.8,10.2-9.9,10.2
		C292,311.4,288.1,306.9,288.1,301.2z"/>
	<path class="st0" d="M343.9,301c0-6.1,4.1-10.4,9.9-10.4c5.8,0,9.7,4.3,9.7,10.4c0,5.9-3.8,10.4-9.9,10.4
		C347.8,311.4,343.9,306.9,343.9,301z"/>
	<path class="st0" d="M378,301c0-6.1,4.1-10.4,9.9-10.4c5.8,0,9.7,4.3,9.7,10.4c0,5.9-3.8,10.4-9.9,10.4
		C381.9,311.4,378,306.9,378,301z"/>
	<path class="st0" d="M412,301c0-6.1,4.1-10.4,9.9-10.4c5.8,0,9.7,4.3,9.7,10.4c0,5.9-3.8,10.4-9.9,10.4
		C416,311.4,412,306.9,412,301z"/>
</g>
<g>
	<path class="st0" d="M387.8,197.2c9.3,0,16.8,7.5,16.8,16.8c0,9.3-7.5,16.8-16.8,16.8c-9.3,0-16.8-7.5-16.8-16.8
		C371,204.7,378.5,197.2,387.8,197.2z"/>
	<path class="st0" d="M442,250.7l-23-35c-2.4-3.7-7.3-4.7-11-2.3c-3.7,2.4-4.7,7.3-2.3,11l9.3,14.1l-9.7-3.8c-0.8-0.3-1-0.4-2.1-0.6
		c-1-0.1-1.8-0.3-2.8-0.3h-38c-11.1,0-19.2,6.4-19.2,17.8v28.5h13.8l0-23.6h4.1v23.6h46.1v-27.6l25.2,10c0.9,0.4,1.9,0.6,2.9,0.6
		c2.3,0,4.6-1,6.1-2.9C443.7,257.4,443.9,253.6,442,250.7z"/>
</g>
<path class="st0" d="M464.8,167.7l-0.8-0.6c0,0-1.6-1.2-1.7-2.8c-0.1-1.8,0.6-3.1,0.6-3.1c-1.1,1-1.7,2-1.6,3.2
	c0,1.3,0.8,2.3,1.5,2.9l-17.7,6.1h0l-1.6-1.9l-2.6,1.2l1.4,1.7l-2.8,1c-0.1,0-0.2,0-0.3,0c-1.1,0-2-1.2-2-2.5c0-1.3,0.9-2.6,1.8-3.1
	l25-9.2L445.2,141l-21.7,7.3c-1.1,0.4-1.8,1.6-1.8,2.9c0,0.7,0.2,1.4,0.6,1.9l0.2-0.1l-0.2,0.1l0.9,1.5c-0.1-2.8,2.1-3.5,3.1-4
	l1.1,1.3c-0.8,0.4-3.2,1.1-3.1,3.6l0,0.1c0,0.5,0.2,1,0.4,1.4l0,0l7.4,11.3c-0.1-1.4,1.4-3.5,3.7-3.9l1,1.3c-2.4,0.9-3.6,2.3-3.4,4
	l0,0.1c0,0.5,0.2,1,0.4,1.4l0,0l2.6,4l0,0c0.6,0.8,1.4,1.3,2.3,1.3c0.2,0,0.4,0,0.5-0.1l3.3-1.1l1.5,1.9l0.7-1.6h1.8l-1.1-1.3
	L464.8,167.7z M436.7,155.3l-1.1-1.3l3.9-1.5l-2.9-3.8l2.6-0.9l2.9,3.7l3.6-1.4l1.3,1.2l-3.9,1.5l5.8,7.3l-2.8,1.1l-5.6-7.4
	L436.7,155.3z"/>
<path class="st0" d="M412.4,201.8c-0.9,0-1.6-0.6-1.8-1.4s0.2-1.7,0.9-2.1c6.7-3.5,8.7-9.4,8.5-13.9c-11.8-3.1-19.3-9.9-19.3-17.6
	c0-2.1,0.6-4.3,1.8-6.3c-1.2-1.9-1.8-4-1.8-6.1c0-5.8,4.5-11,11.4-13.2c1.8-8.7,12.6-15.1,25.8-15.1c8.5,0,16.4,2.8,21.3,7.4
	c0.3,0,0.6,0,0.9,0c14.4,0,26.1,7.9,26.1,17.6c0,4.1-2.1,8.1-6,11.2c1.4,2.2,2,4.4,2,6.7c0,9.7-10.4,17.3-23.8,17.3h-18.6
	C436.1,194.3,429.7,201.8,412.4,201.8z M437.9,129.9c-11.7,0-21.5,5.7-22.3,13c-0.1,0.8-0.6,1.4-1.4,1.6c-5.9,1.6-9.8,5.6-9.8,10
	c0,1.7,0.6,3.3,1.8,4.9c0.5,0.6,0.5,1.5,0,2.2c-1.2,1.8-1.8,3.5-1.8,5.3c0,6.1,7,11.7,17.8,14.3c0.7,0.2,1.3,0.8,1.4,1.5
	c0.9,5.5-1,11-5,15.1c11.3-1.5,15.6-7.5,18.4-13.8c0.3-0.7,1-1.1,1.7-1.1h19.8c11.3,0,20.1-6,20.1-13.6c0-2.1-0.7-3.9-2.3-6
	c-0.3-0.4-0.4-0.9-0.3-1.4c0.1-0.5,0.4-0.9,0.8-1.2c3.8-2.6,5.9-5.9,5.9-9.3c0-7.7-10-13.9-22.4-13.9c-0.4,0-0.8,0-1.2,0l-0.4,0
	c-0.5,0-1-0.2-1.4-0.6C453,132.6,445.6,129.9,437.9,129.9z"/>
<g>
	<path class="st0" d="M155.8,358.1c0,9.7-5.9,15.3-13.8,15.3c-8.2,0-13.4-6.3-13.4-14.7c0-8.9,5.6-15.2,13.8-15.2
		C150.8,343.4,155.8,349.8,155.8,358.1z M134.2,358.5c0,5.9,3,10.6,8,10.6c5.1,0,8-4.8,8-10.8c0-5.5-2.7-10.6-8-10.6
		C137,347.7,134.2,352.5,134.2,358.5z"/>
	<path class="st0" d="M158.4,370l14.8-21.5v-0.1h-13.5v-4.4h20.4v3.1l-14.6,21.4v0.1h14.8v4.4h-21.9V370z"/>
	<path class="st0" d="M209.5,358.1c0,9.7-5.9,15.3-13.8,15.3c-8.2,0-13.4-6.3-13.4-14.7c0-8.9,5.6-15.2,13.8-15.2
		C204.5,343.4,209.5,349.8,209.5,358.1z M187.8,358.5c0,5.9,3,10.6,8,10.6c5.1,0,8-4.8,8-10.8c0-5.5-2.7-10.6-8-10.6
		C190.6,347.7,187.8,352.5,187.8,358.5z"/>
	<path class="st0" d="M214,372.9v-29h6.1l7.5,12.4c1.9,3.2,3.6,6.6,4.9,9.7h0.1c-0.4-3.9-0.5-7.6-0.5-12v-10.1h4.9v29h-5.5
		l-7.6-12.8c-1.8-3.2-3.7-6.7-5.2-10l-0.2,0c0.2,3.7,0.3,7.6,0.3,12.3v10.4H214z"/>
	<path class="st0" d="M272.8,372.1c-1.2,0.6-4,1.3-7.5,1.3c-9.2,0-14.8-5.8-14.8-14.6c0-9.5,6.7-15.3,15.5-15.3c3.5,0,5.9,0.7,7,1.3
		l-1.1,4.2c-1.4-0.6-3.3-1.1-5.7-1.1c-5.9,0-10.1,3.7-10.1,10.7c0,6.4,3.7,10.4,10.1,10.4c2.1,0,4.3-0.4,5.8-1L272.8,372.1z"/>
	<path class="st0" d="M301.9,358.1c0,9.7-5.9,15.3-13.8,15.3c-8.2,0-13.4-6.3-13.4-14.7c0-8.9,5.6-15.2,13.8-15.2
		C296.9,343.4,301.9,349.8,301.9,358.1z M280.3,358.5c0,5.9,3,10.6,8,10.6c5.1,0,8-4.8,8-10.8c0-5.5-2.7-10.6-8-10.6
		C283.1,347.7,280.3,352.5,280.3,358.5z"/>
	<path class="st0" d="M306.4,372.9v-29h6.1l7.5,12.4c1.9,3.2,3.6,6.6,4.9,9.7h0.1c-0.4-3.9-0.5-7.6-0.5-12v-10.1h4.9v29h-5.5
		l-7.6-12.8c-1.8-3.2-3.7-6.7-5.2-10l-0.2,0c0.2,3.7,0.3,7.6,0.3,12.3v10.4H306.4z"/>
	<path class="st0" d="M358.7,371.6c-1.8,0.7-5.5,1.6-9.3,1.6c-4.9,0-8.6-1.2-11.4-3.9c-2.6-2.5-4-6.3-4-10.7c0-9.2,6.5-15,16.1-15
		c3.6,0,6.4,0.7,7.7,1.4l-1.2,4.3c-1.6-0.7-3.5-1.2-6.6-1.2c-6.2,0-10.5,3.7-10.5,10.4c0,6.6,4,10.5,10.1,10.5c1.9,0,3.3-0.3,4-0.6
		v-7.3h-5.1v-4.2h10.2V371.6z"/>
	<path class="st0" d="M364.1,344.4c2-0.4,4.9-0.6,8-0.6c4.2,0,7,0.7,8.9,2.3c1.6,1.3,2.5,3.4,2.5,5.8c0,3.7-2.5,6.3-5.3,7.2v0.1
		c2.1,0.8,3.4,2.8,4,5.6c0.9,3.6,1.7,7,2.3,8.1h-5.4c-0.4-0.9-1.2-3.2-1.9-6.8c-0.9-3.8-2.2-5-5.2-5.1h-2.7v11.9h-5.2V344.4z
		 M369.4,357.1h3.1c3.6,0,5.8-1.9,5.8-4.8c0-3.1-2.2-4.6-5.6-4.6c-1.7,0-2.8,0.1-3.3,0.3V357.1z"/>
	<path class="st0" d="M404.8,360h-10.9v8.5h12.2v4.3h-17.5v-29h16.9v4.3h-11.6v7.5h10.9V360z"/>
	<path class="st0" d="M410.7,367.1c1.7,1,4.3,1.8,7,1.8c3.4,0,5.2-1.6,5.2-4c0-2.2-1.5-3.5-5.1-4.8c-4.8-1.7-7.9-4.3-7.9-8.4
		c0-4.8,4-8.3,10.3-8.3c3.1,0,5.4,0.7,6.9,1.5l-1.2,4.3c-1.1-0.6-3.1-1.4-5.8-1.4c-3.4,0-4.8,1.8-4.8,3.5c0,2.2,1.7,3.3,5.5,4.8
		c5,1.9,7.4,4.4,7.4,8.6c0,4.7-3.5,8.7-11,8.7c-3.1,0-6.3-0.9-7.9-1.8L410.7,367.1z"/>
	<path class="st0" d="M234.3,422.9v-3.2l3.3-3.1c6.6-6.1,9.7-9.5,9.7-13.2c0-2.5-1.3-4.7-5-4.7c-2.5,0-4.6,1.2-6,2.3l-1.5-3.7
		c2-1.6,5.1-2.9,8.6-2.9c6.2,0,9.2,3.9,9.2,8.5c0,4.9-3.5,8.9-8.4,13.4l-2.4,2.1v0.1h11.4v4.4H234.3z"/>
	<path class="st0" d="M277.1,408.7c0,9-3.5,14.7-10.2,14.7c-6.4,0-9.8-5.8-9.9-14.4c0-8.7,3.7-14.5,10.2-14.5
		C273.9,394.5,277.1,400.5,277.1,408.7z M262.3,409c0,6.8,1.8,10.4,4.7,10.4c3.1,0,4.7-3.8,4.7-10.5c0-6.5-1.5-10.3-4.7-10.3
		C264.3,398.5,262.3,402,262.3,409z"/>
	<path class="st0" d="M280.4,422.9v-3.2l3.3-3.1c6.6-6.1,9.7-9.5,9.7-13.2c0-2.5-1.3-4.7-5-4.7c-2.5,0-4.6,1.2-6,2.3l-1.5-3.7
		c2-1.6,5.1-2.9,8.6-2.9c6.2,0,9.2,3.9,9.2,8.5c0,4.9-3.5,8.9-8.4,13.4l-2.4,2.1v0.1h11.4v4.4H280.4z"/>
	<path class="st0" d="M323.2,408.7c0,9-3.5,14.7-10.2,14.7c-6.4,0-9.8-5.8-9.9-14.4c0-8.7,3.7-14.5,10.2-14.5
		C320,394.5,323.2,400.5,323.2,408.7z M308.4,409c0,6.8,1.8,10.4,4.7,10.4c3.1,0,4.7-3.8,4.7-10.5c0-6.5-1.5-10.3-4.7-10.3
		C310.4,398.5,308.4,402,308.4,409z"/>
</g>
<g>
	<path class="st0" d="M310.2,222.5c-16,0-32,0-47.9-0.1c0,1.9,0,3.8,0,5.8c1.6,0,3.3,0.1,4.9,0.1c13.9,0,27.9,0,41.8,0.1
		C309.6,226.4,310,224.4,310.2,222.5z"/>
	<path class="st0" d="M541.3,222.8c-12.5,0-25,0-37.7-0.1c9.7-19.5,12.6-39.7,8.1-60.7c-4.4-21-15.2-38.4-31.8-51.9
		c-29.7-24.2-72.2-27-104.5-7.1c-16.6,10.2-29,24.3-36.6,42.3c-10.9,26-9.6,51.7,2.6,77.2c-3.1,0-6.2,0-9.3,0c0,0,0,0.1,0,0.1
		c-0.1,2-0.4,3.9-0.8,5.8c14.5,0,29.1,0,43.6,0.1c-1.9-1.7-3.6-3.6-4.9-5.8c-6,0-12.1,0-18.1,0c-1.5,0-2.3-0.5-3-1.8
		c-5.6-10.6-9-21.9-9.7-34c-1.4-22.5,5-42.4,19.3-59.7c12.6-15.2,28.8-24.7,48.1-28.4c23.4-4.4,45.2,0.1,64.6,14
		c18.4,13.1,29.7,31,33.8,53.3c3.5,19.4,0.4,37.8-8.9,55.1c-0.5,0.9-0.9,1.6-2.3,1.6c-19.2-0.1-38.3-0.1-57.5-0.1
		c-0.3,0-0.7-0.1-1.2-0.1c0-1,0-1.9,0-2.8c-0.1,0-0.3,0-0.4,0c-0.9,0-1.8,0.1-2.7,0.1c-0.9,0-1.8,0-2.7,0c0,0,0,0-0.1,0
		c0,2.4,0,4.8,0,7.2c1.7,3,3.6,6,5.7,9c0-1.6,0-3.2,0-4.8c0-2,0.4-2.6,2.6-2.6c46.3,0.1,92.6,0.2,138.9,0.2c0.8,0,1.6,0,2.4,0
		c0-2.1,0-3.8,0-5.8C566.2,222.8,553.7,222.8,541.3,222.8z"/>
	<path class="st0" d="M262.3,181.7c17.1,0,34.2,0,51.3,0.1c0,1.3,0,2.4,0,3.7c-0.6,0-1.2,0.1-1.7,0.1c-16.1,0-32.1,0-48.2-0.1
		c-0.5,0-1-0.1-1.4-0.1C262.3,184.2,262.3,183,262.3,181.7z"/>
	<path class="st0" d="M336.1,128.6c-3.2,5.9-6.3,11.7-9.4,17.6c-1.9,3.5-3.9,7-5.7,10.6c-0.6,1.1-1.1,1.5-2.4,1.1
		c-15.5-4.1-30.9-8.2-46.4-12.2c-2.1-0.5-4.1-1.2-6.2-1.7c-1.7-0.5-2.2-1.4-1.4-3c2.9-6.1,5.9-12.1,8.7-18.2c3.7-8,7.4-16,11-24.1
		c0.7-1.6,1.7-2,3-1.2c6,3.8,12,7.7,18,11.5c9.6,6.1,19.1,12.1,28.7,18.2C334.6,127.5,335.1,127.9,336.1,128.6z M288.2,105.5
		c-5.3,11.4-10.6,22.6-15.8,33.7c6.3,1.7,12.4,3.5,18.5,5.1c8.1,2.2,16.2,4.3,24.3,6.5c1,0.3,1.7,0.2,2.2-0.9
		c1.9-3.7,4-7.2,5.9-10.9c1.5-2.8,2.9-5.6,4.4-8.5C314.6,122.1,301.5,113.9,288.2,105.5z"/>
	<path class="st0" d="M507.8,45.8c-10.2,15.6-20.3,31-30.4,46.6c-0.6-0.3-1.3-0.5-1.9-0.8c-4.4-2.2-8.8-4.5-13.3-6.6
		c-4.6-2.2-9.2-4.2-13.9-6.3c-0.4-0.2-0.7-0.3-1.1-0.4c-1.9-0.5-1.9-0.9-1.3-2.7c1.2-3.6,2.2-7.3,3.3-10.9c3-10.1,6-20.3,8.9-30.4
		c0.9-3,1.7-6,2.5-9c0.7-2.6,1-2.8,3.4-1.6c14,7.1,28.1,14.1,42.2,21.1C506.7,45.1,507.1,45.4,507.8,45.8z M498.7,48.2
		c-11.2-5.6-22.1-11.1-33.2-16.7c-4.2,14.4-8.3,28.4-12.5,42.6c7.6,3.3,14.9,6.5,22.4,9.8C483.2,72,490.9,60.2,498.7,48.2z"/>
	<path class="st0" d="M513.3,127.9c14-8.8,27.7-17.4,41.5-26.1c1.6,2,2.9,3.9,4.5,5.7c1,1.2,0.9,2.1,0.1,3.4
		c-6.5,10.8-13,21.6-19.5,32.4c-2,3.3-4,6.6-6.2,10.4c14-4.3,27.6-8.5,41.2-12.7c0.6,1.9,1.3,3.9,1.9,5.9
		c-10.4,3.2-20.8,6.3-31.2,9.5c-6,1.9-11.9,3.9-17.8,5.8c-0.4,0.1-0.8,0.2-1.2,0.1c-1.3-0.4-2.7-4.6-2-5.8
		c8.3-13.9,16.6-27.8,25-41.8c0.6-1,1.3-2,1.7-3.3c-11.6,7.3-23.1,14.5-34.8,21.8C515.4,131.4,514.4,129.7,513.3,127.9z"/>
	<path class="st0" d="M364.9,95.7c4.4-20.3,8.7-40.6,13.1-61.3c-12.2,4.7-24.3,9.2-36.5,13.9c-0.7-1.8-1.4-3.6-2.2-5.8
		c15.4-5.9,30.8-11.8,46.7-17.9c-0.4,3.1-0.7,5.7-1.2,8.2c-2.8,12.9-5.6,25.9-8.4,38.8c-1,4.6-1.9,9.3-2.9,14.1c6.3-3,12.4-6,18.7-9
		c0.9,1.8,1.9,3.6,2.9,5.6c-10,4.5-19.6,9.7-29.5,14C365.3,96.1,365.1,95.9,364.9,95.7z"/>
	<path class="st0" d="M350.5,106.9c-0.7,0.7-1.5,1.5-2.3,2.2c-12.4-12.5-24.8-25-37.4-37.6c0.7-0.6,1.6-1.3,2.4-2
		C325.6,81.8,338,94.2,350.5,106.9z"/>
	<path class="st0" d="M534.1,68.9c0.7,0.7,1.5,1.5,2.3,2.3c-12.5,12.5-24.9,24.8-37.5,37.3c-0.6-0.7-1.4-1.6-2.1-2.4
		C509.1,93.8,521.5,81.4,534.1,68.9z"/>
	<path class="st0" d="M421.6,23.4c1.2,0,2.3,0,3.5,0c0,17.5,0,34.9-0.1,52.5c-1.1,0-2.2,0-3.5,0C421.6,58.4,421.6,41,421.6,23.4z"/>
	<path class="st0" d="M578.8,180.2c0,1.2,0,2.2,0,3.5c-16.5,0-33,0-49.7-0.1c0-1.1,0-2.2,0-3.5C545.6,180.2,562.1,180.2,578.8,180.2
		z"/>
</g>
<line class="st1" x1="127" y1="327.5" x2="430.3" y2="327.5"/>
</svg>
